<?xml version="1.0" encoding="utf-8"?>
<!-- Generator: Adobe Illustrator 24.0.1, SVG Export Plug-In . SVG Version: 6.00 Build 0)  -->
<svg version="1.1" id="图层_1" xmlns="http://www.w3.org/2000/svg" xmlns:xlink="http://www.w3.org/1999/xlink" x="0px" y="0px"
	 viewBox="0 0 793.7 328.1" style="enable-background:new 0 0 793.7 328.1;" xml:space="preserve">
<style type="text/css">
	.st0{fill:#FFFFFF;}
	.st1{fill:#28BDFF;}
</style>
<g id="图层_2_1_">
	<g id="图层_1-2">
		<path class="st0" d="M70.7,105.8l9.8,30.8c-3.9,0.3-7.6,0.3-11.3,0.9c-11.3,1.9-18,8.4-19.8,20.6c-1.2,8.1-1.4,16.5-1.7,24.7
			c-0.2,5.4-0.3,10.8,0.3,16.2c1.3,10.7,7.6,17.7,17.3,21.7c5.7,2.3,11.7,3.3,17.9,3.3c26.2,0,52.4,0,78.5,0
			c5.6,0,11.2-0.9,16.5-2.8c11.8-4.3,18.5-13,18.9-25.5c0.3-11.3,0-22.5-0.3-33.7c-0.1-3-0.8-6-1.6-9c-2.7-9.5-9-14.7-18.8-15.6
			c-4.3-0.4-8.6-0.5-13-0.7c3-10.4,7-20.4,9.6-31.1c9.3,1.8,18,6.1,25.2,12.3c12.9,11.3,19.6,25.5,19.8,42.6
			c0.2,14.9,0.1,29.8,0,44.8c-0.1,19.7-16,35.6-35.7,35.7c-39.9,0.1-79.9,0.1-119.8,0c-19.7-0.1-35.6-16-35.8-35.6
			c-0.1-15.1-0.1-30.2,0-45.2c0.3-25.5,17.7-47.6,42.4-53.9C69.8,105.9,70.4,105.9,70.7,105.8z"/>
		<path class="st0" d="M435.9,222.4c-27.9,0-49-20.9-48.9-48.6c0.1-27.7,21.1-48.3,49.2-48.3c27.8,0.1,48.5,20.7,48.4,48.4
			C484.6,201.7,463.7,222.4,435.9,222.4z M412.2,173.9c0,1.2-0.1,2.3,0,3.5c0.8,12,8.5,20.4,20.1,22c12.4,1.7,22.9-4.8,26.1-16.6
			c1.4-4.9,1.4-9.8,0.7-14.9c-2.5-17.8-23.5-26.4-37.8-15.4C414.3,157.9,412.1,165.4,412.2,173.9z"/>
		<path class="st0" d="M636.6,222.4c-28.1-0.2-48.9-21-48.7-48.8c0.2-28,21.1-48.3,49.5-48.1c27.6,0.2,48.3,21,48.1,48.5
			C685.3,201.7,664.3,222.5,636.6,222.4z M660.2,174c0-1.2,0.1-2.5,0-3.8c-0.8-12.2-8.8-20.6-20.9-22c-12.7-1.5-23.2,5.8-25.6,18.3
			c-0.8,4.3-0.9,8.7-0.3,13c2.3,18,23.4,26.6,37.8,15.5C658.1,189.8,660.3,182.3,660.2,174L660.2,174z"/>
		<path class="st0" d="M296.8,221.5c-2,0-2.7-0.7-2.7-2.7c0-29.8,0-59.5,0-89.3c0-1.8,0.5-2.7,2.5-2.7c11.9,0.1,23.7-0.2,35.6,0.2
			c12,0.4,23,4.2,32.2,12.1c10.8,9.2,15.6,21.1,15.6,35.2c-0.2,23.3-15.7,41.8-39.2,45.8C332.4,221.5,302.9,221.4,296.8,221.5z
			 M319,145.4v56.9c4.2,0,8.1,0.2,12.1,0c6.5-0.4,12.4-2.6,16.8-7.7c8.4-9.8,8.8-21,5-32.6c-2.6-7.9-8.4-13.3-16.6-15
			C330.7,145.8,324.9,145.9,319,145.4L319,145.4z"/>
		<path class="st0" d="M522.9,172.7c8.1-12.2,16.3-24.4,24.4-36.6c1.7-2.5,3.3-5.2,5.1-7.6c0.6-0.8,1.7-1.6,2.6-1.6
			c8.7-0.1,17.5-0.1,26.3-0.1c1.3,0.1,0.9,2.1,0.5,2.9c-19.6,30.1-39.3,60.1-59,90.1c-0.7,0.9-1.8,1.5-3,1.6
			c-6.9,0.1-13.8,0-20.6,0.1c-2,0-2.5-0.8-2.5-2.6c0-29.8,0-59.7,0-89.6c0-1.7,0.4-2.5,2.3-2.5c6.9,0.1,13.9,0.1,20.9,0
			c1.9,0,2.3,0.7,2.3,2.5c0.1,13.2,0.2,26.4,0.3,39.6v3.7L522.9,172.7z"/>
		<path class="st0" d="M160.8,103.5c-3.5,10.6-6.9,21.1-10.2,31.5c-0.3,1-0.5,1.8-1.9,1.8c-18.1-0.1-36.2,0-54.6,0
			c-0.6-1.8-1.2-3.6-1.8-5.4c-2.8-8.5-5.5-17.1-8.3-25.6c-0.4-1.1-0.4-1.8,0.6-2.6c9.7-7,19.9-12.8,31.8-15.3
			c8.4-1.8,16.4-0.4,24.2,2.9C147.9,94,154.8,98.3,160.8,103.5z"/>
		<path class="st0" d="M771,220.4c-3.5,0-6.7,0.1-10-0.1c-0.6,0-1.4-0.8-1.7-1.5c-0.9-2.1-1.6-4.2-2.3-6.4c-0.4-1.4-1.1-1.8-2.5-1.8
			c-3.2,0.1-6.4,0-9.9,0c0.8-2.6,1.5-5,2.4-7.3c0.2-0.4,1.1-0.8,1.7-0.8c1.5-0.1,3.1,0,4.9,0c-2.6-7.2-5-14.1-7.6-21.5
			c-0.7,2-1.2,3.3-1.7,4.7c-3.8,10.8-7.6,21.6-11.3,32.4c-0.6,1.8-1.5,2.4-3.3,2.3c-2.9-0.2-5.8,0-8.9,0c2.1-5.8,4.1-11.3,6.1-16.7
			c4.1-11.1,8.1-22.3,12.1-33.4c0.5-1.5,1.2-2.1,2.8-2c3,0.1,6.1,0,9.1,0.1c0.7,0,1.8,0.7,2,1.3c6.1,16.5,12.1,33.1,18,49.7
			C771,219.7,771,220,771,220.4z"/>
		<path class="st0" d="M21.2,175.5V194c0,4.1-2.2,6-6.2,5.6c-8.1-0.8-14.6-7.6-14.8-15.8c-0.1-5.5-0.1-11.1,0-16.6
			c0.2-8.2,6.7-15,14.8-15.8c4-0.4,6.2,1.5,6.2,5.6C21.2,163.1,21.2,169.3,21.2,175.5z"/>
		<path class="st0" d="M223.7,175.5V157c0-4.1,2.2-6,6.2-5.6c8.3,0.8,14.6,7.7,14.9,16c0.1,5.4,0.1,10.8,0,16.2
			c-0.2,8.3-6.6,15.2-14.8,16c-4.1,0.4-6.2-1.5-6.2-5.6C223.7,187.8,223.7,181.7,223.7,175.5z"/>
		<path class="st0" d="M566.9,221.5c-4.2,0-8.4,0.1-12.7-0.1c-1.3-0.1-2.4-0.7-3.3-1.6c-3.3-3.9-6.3-7.9-9.6-11.8
			c-1.2-1.4-0.9-2.4-0.1-3.7c3.5-5.4,7-10.9,10.5-16.4c1.3-2,1.8-2.1,3.5-0.2c5.7,6.7,11.4,13.4,17.2,20.2c2.9,3.4,5.9,6.9,8.8,10.4
			c0.6,0.7-0.6,3.1-1.6,3.2C575.3,221.5,571.1,221.5,566.9,221.5z"/>
		<path class="st1" d="M132.9,184.4c0.7-1.6,1.1-3.5,2.1-4.8c9.3-11.6,26-16.1,39-0.3c2.9,3.3,2.5,8.4-0.8,11.3l-0.1,0.1
			c-3.3,2.9-7.9,2.5-11.1-0.8c-5.9-6.1-9-6.1-14.9,0.1c-2.5,2.6-5.7,3.4-8.7,2.2S133.3,187.9,132.9,184.4z"/>
		<path class="st1" d="M96.2,180.7c0,7.4-6,13.3-13.4,13.3c-7.4,0-13.3-6-13.3-13.4c0-7.4,6-13.3,13.4-13.3
			C90.2,167.3,96.2,173.2,96.2,180.7C96.2,180.6,96.2,180.7,96.2,180.7z"/>
		<path class="st0" d="M792,220.3h-10.6V218c0-15.7,0-31.4,0-47.1c0-2,0.6-2.6,2.5-2.5c2.6,0.2,5.3,0,8.2,0L792,220.3z"/>
		<path class="st0" d="M706.9,220.4c-3.2,0.1-5.8-2.4-6-5.5c0-0.1,0-0.2,0-0.3c-0.1-3.2,2.5-5.9,5.7-6h0.4c3.5,0,6.2,2.7,6.1,6
			C713.2,217.9,710.5,220.4,706.9,220.4z"/>
	</g>
</g>
</svg>
