<svg width="60" height="60" viewBox="0 0 60 60" fill="none" xmlns="http://www.w3.org/2000/svg">
<path d="M53.7483 4L32.9043 19.4811L36.7589 10.3475L53.7483 4Z" fill="#E2761B" stroke="#E2761B" stroke-width="0.209487" stroke-linecap="round" stroke-linejoin="round"/>
<path d="M5.62891 4L26.3053 19.6277L22.6392 10.3475L5.62891 4Z" fill="#E4761B" stroke="#E4761B" stroke-width="0.209487" stroke-linecap="round" stroke-linejoin="round"/>
<path d="M46.2487 39.8848L40.6973 48.3899L52.5752 51.6579L55.9898 40.0733L46.2487 39.8848Z" fill="#E4761B" stroke="#E4761B" stroke-width="0.209487" stroke-linecap="round" stroke-linejoin="round"/>
<path d="M3.42969 40.0733L6.82338 51.6579L18.7013 48.3899L13.1499 39.8848L3.42969 40.0733Z" fill="#E4761B" stroke="#E4761B" stroke-width="0.209487" stroke-linecap="round" stroke-linejoin="round"/>
<path d="M18.0306 25.5146L14.7207 30.5213L26.5148 31.0451L26.0958 18.3711L18.0306 25.5146Z" fill="#E4761B" stroke="#E4761B" stroke-width="0.209487" stroke-linecap="round" stroke-linejoin="round"/>
<path d="M41.3466 25.5148L33.1766 18.2246L32.9043 31.0452L44.6775 30.5215L41.3466 25.5148Z" fill="#E4761B" stroke="#E4761B" stroke-width="0.209487" stroke-linecap="round" stroke-linejoin="round"/>
<path d="M18.7012 48.3901L25.7818 44.9335L19.6648 40.1572L18.7012 48.3901Z" fill="#E4761B" stroke="#E4761B" stroke-width="0.209487" stroke-linecap="round" stroke-linejoin="round"/>
<path d="M33.5957 44.9335L40.6973 48.3901L39.7127 40.1572L33.5957 44.9335Z" fill="#E4761B" stroke="#E4761B" stroke-width="0.209487" stroke-linecap="round" stroke-linejoin="round"/>
<path d="M40.6973 48.3901L33.5957 44.9336L34.1613 49.5633L34.0985 51.5115L40.6973 48.3901Z" fill="#D7C1B3" stroke="#D7C1B3" stroke-width="0.209487" stroke-linecap="round" stroke-linejoin="round"/>
<path d="M18.7012 48.3901L25.3 51.5115L25.2581 49.5633L25.7818 44.9336L18.7012 48.3901Z" fill="#D7C1B3" stroke="#D7C1B3" stroke-width="0.209487" stroke-linecap="round" stroke-linejoin="round"/>
<path d="M25.4056 37.0992L19.498 35.3604L23.6668 33.4541L25.4056 37.0992Z" fill="#233447" stroke="#233447" stroke-width="0.209487" stroke-linecap="round" stroke-linejoin="round"/>
<path d="M33.9727 37.0992L35.7114 33.4541L39.9011 35.3604L33.9727 37.0992Z" fill="#233447" stroke="#233447" stroke-width="0.209487" stroke-linecap="round" stroke-linejoin="round"/>
<path d="M18.7018 48.3909L19.7073 39.8857L13.1504 40.0743L18.7018 48.3909Z" fill="#CD6116" stroke="#CD6116" stroke-width="0.209487" stroke-linecap="round" stroke-linejoin="round"/>
<path d="M39.6924 39.8857L40.6979 48.3909L46.2493 40.0743L39.6924 39.8857Z" fill="#CD6116" stroke="#CD6116" stroke-width="0.209487" stroke-linecap="round" stroke-linejoin="round"/>
<path d="M44.6775 30.5215L32.9043 31.0452L33.9936 37.0994L35.7324 33.4543L39.9221 35.3606L44.6775 30.5215Z" fill="#CD6116" stroke="#CD6116" stroke-width="0.209487" stroke-linecap="round" stroke-linejoin="round"/>
<path d="M19.498 35.3606L23.6877 33.4543L25.4055 37.0994L26.5158 31.0452L14.7217 30.5215L19.498 35.3606Z" fill="#CD6116" stroke="#CD6116" stroke-width="0.209487" stroke-linecap="round" stroke-linejoin="round"/>
<path d="M14.7207 30.5215L19.6646 40.1579L19.497 35.3606L14.7207 30.5215Z" fill="#E4751F" stroke="#E4751F" stroke-width="0.209487" stroke-linecap="round" stroke-linejoin="round"/>
<path d="M39.9214 35.3606L39.7119 40.1579L44.6768 30.5215L39.9214 35.3606Z" fill="#E4751F" stroke="#E4751F" stroke-width="0.209487" stroke-linecap="round" stroke-linejoin="round"/>
<path d="M26.5146 31.0449L25.4043 37.0991L26.7869 44.2426L27.1011 34.8366L26.5146 31.0449Z" fill="#E4751F" stroke="#E4751F" stroke-width="0.209487" stroke-linecap="round" stroke-linejoin="round"/>
<path d="M32.9035 31.0449L32.3379 34.8157L32.5893 44.2426L33.9928 37.0991L32.9035 31.0449Z" fill="#E4751F" stroke="#E4751F" stroke-width="0.209487" stroke-linecap="round" stroke-linejoin="round"/>
<path d="M33.9934 37.0991L32.5898 44.2426L33.5954 44.9339L39.7124 40.1576L39.9219 35.3604L33.9934 37.0991Z" fill="#F6851B" stroke="#F6851B" stroke-width="0.209487" stroke-linecap="round" stroke-linejoin="round"/>
<path d="M19.498 35.3604L19.6656 40.1576L25.7827 44.9339L26.7882 44.2426L25.4056 37.0991L19.498 35.3604Z" fill="#F6851B" stroke="#F6851B" stroke-width="0.209487" stroke-linecap="round" stroke-linejoin="round"/>
<path d="M34.0985 51.512L34.1613 49.5638L33.6376 49.1029H25.7399L25.2581 49.5638L25.3 51.512L18.7012 48.3906L21.0055 50.276L25.6771 53.5231H33.7004L38.393 50.276L40.6973 48.3906L34.0985 51.512Z" fill="#C0AD9E" stroke="#C0AD9E" stroke-width="0.209487" stroke-linecap="round" stroke-linejoin="round"/>
<path d="M33.5954 44.9335L32.5899 44.2422H26.7871L25.7815 44.9335L25.2578 49.5632L25.7396 49.1023H33.6373L34.161 49.5632L33.5954 44.9335Z" fill="#161616" stroke="#161616" stroke-width="0.209487" stroke-linecap="round" stroke-linejoin="round"/>
<path d="M54.6282 20.4866L56.4088 11.9396L53.7484 4L33.5957 18.9574L41.3467 25.5143L52.3029 28.7195L54.7329 25.8914L53.6855 25.1372L55.3614 23.608L54.0626 22.6024L55.7385 21.3246L54.6282 20.4866Z" fill="#763D16" stroke="#763D16" stroke-width="0.209487" stroke-linecap="round" stroke-linejoin="round"/>
<path d="M2.99023 11.9396L4.77087 20.4866L3.63964 21.3246L5.31554 22.6024L4.03767 23.608L5.71357 25.1372L4.66613 25.8914L7.07523 28.7195L18.0314 25.5143L25.7824 18.9574L5.62977 4L2.99023 11.9396Z" fill="#763D16" stroke="#763D16" stroke-width="0.209487" stroke-linecap="round" stroke-linejoin="round"/>
<path d="M52.3031 28.7198L41.3469 25.5146L44.6777 30.5214L39.7129 40.1578L46.2489 40.074H55.99L52.3031 28.7198Z" fill="#F6851B" stroke="#F6851B" stroke-width="0.209487" stroke-linecap="round" stroke-linejoin="round"/>
<path d="M18.0309 25.5146L7.07476 28.7198L3.42969 40.074H13.1499L19.6649 40.1578L14.721 30.5214L18.0309 25.5146Z" fill="#F6851B" stroke="#F6851B" stroke-width="0.209487" stroke-linecap="round" stroke-linejoin="round"/>
<path d="M32.9045 31.045L33.5958 18.9576L36.78 10.3477H22.6396L25.782 18.9576L26.5152 31.045L26.7665 34.8576L26.7875 44.2427H32.5903L32.6322 34.8576L32.9045 31.045Z" fill="#F6851B" stroke="#F6851B" stroke-width="0.209487" stroke-linecap="round" stroke-linejoin="round"/>
</svg>
